<svg xmlns="http://www.w3.org/2000/svg" viewBox="0 0 200 220">
  <g transform="translate(100,95)">
    <ellipse rx="11" ry="42" fill="#FFCD00" transform="rotate(0)   translate(0,-52)"/>
    <ellipse rx="11" ry="42" fill="#FFCD00" transform="rotate(20)  translate(0,-52)"/>
    <ellipse rx="11" ry="42" fill="#C8D400" transform="rotate(40)  translate(0,-52)"/>
    <ellipse rx="11" ry="42" fill="#96C21F" transform="rotate(60)  translate(0,-52)"/>
    <ellipse rx="11" ry="42" fill="#5FAA1E" transform="rotate(80)  translate(0,-52)"/>
    <ellipse rx="11" ry="42" fill="#2E921E" transform="rotate(100) translate(0,-52)"/>
    <ellipse rx="11" ry="42" fill="#007A33" transform="rotate(120) translate(0,-52)"/>
    <ellipse rx="11" ry="42" fill="#007A33" transform="rotate(140) translate(0,-52)"/>
    <ellipse rx="11" ry="42" fill="#007A33" transform="rotate(160) translate(0,-52)"/>
    <ellipse rx="11" ry="42" fill="#007A33" transform="rotate(180) translate(0,-52)"/>
    <ellipse rx="11" ry="42" fill="#007A33" transform="rotate(200) translate(0,-52)"/>
    <ellipse rx="11" ry="42" fill="#2E921E" transform="rotate(220) translate(0,-52)"/>
    <ellipse rx="11" ry="42" fill="#5FAA1E" transform="rotate(240) translate(0,-52)"/>
    <ellipse rx="11" ry="42" fill="#96C21F" transform="rotate(260) translate(0,-52)"/>
    <ellipse rx="11" ry="42" fill="#C8D400" transform="rotate(280) translate(0,-52)"/>
    <ellipse rx="11" ry="42" fill="#FFCD00" transform="rotate(300) translate(0,-52)"/>
    <ellipse rx="11" ry="42" fill="#FFCD00" transform="rotate(320) translate(0,-52)"/>
    <ellipse rx="11" ry="42" fill="#FFCD00" transform="rotate(340) translate(0,-52)"/>
    <circle r="22" fill="#007A33"/>
  </g>
  <text x="100" y="210" text-anchor="middle" font-family="Arial, sans-serif" font-size="36" font-weight="900" font-style="italic" fill="#007A33">bp</text>
</svg>
